<svg width="38" height="38" viewBox="0 0 38 38" fill="none" xmlns="http://www.w3.org/2000/svg">
<path fill-rule="evenodd" clip-rule="evenodd" d="M18.6919 37.3838C29.0151 37.3838 37.3838 29.0151 37.3838 18.6919C37.3838 8.36865 29.0151 0 18.6919 0C8.36865 0 0 8.36865 0 18.6919C0 29.0151 8.36865 37.3838 18.6919 37.3838ZM9 15C9.15428 21.8709 12.8569 26 19.3485 26H19.7165V22.0691C22.1019 22.2893 23.9056 23.9079 24.6295 26H28C27.0743 22.8729 24.6414 21.1441 23.1223 20.4835C24.6414 19.6687 26.7775 17.6867 27.2878 15H24.2259C23.5613 17.1802 21.5916 19.1622 19.7165 19.3493V15H16.6545V22.6196C14.7557 22.1792 12.3585 20.043 12.2517 15H9Z" fill="white"/>
</svg>
