<svg width="239" height="16" viewBox="0 0 239 16" fill="#fff" xmlns="http://www.w3.org/2000/svg">
<path d="M0.292893 7.29289C-0.0976311 7.68342 -0.0976311 8.31658 0.292893 8.70711L6.65685 15.0711C7.04738 15.4616 7.68054 15.4616 8.07107 15.0711C8.46159 14.6805 8.46159 14.0474 8.07107 13.6569L2.41421 8L8.07107 2.34315C8.46159 1.95262 8.46159 1.31946 8.07107 0.928932C7.68054 0.538408 7.04738 0.538408 6.65685 0.928932L0.292893 7.29289ZM238.773 8L233 2.2265L227.226 8L233 13.7735L238.773 8ZM1 9H3V7H1V9ZM7 9H11V7H7V9ZM15 9H19V7H15V9ZM23 9H27V7H23V9ZM31 9H35V7H31V9ZM39 9H43V7H39V9ZM47 9H51V7H47V9ZM55 9H59V7H55V9ZM63 9H67V7H63V9ZM71 9H75V7H71V9ZM79 9H83V7H79V9ZM87 9H91V7H87V9ZM95 9H99V7H95V9ZM103 9H107V7H103V9ZM111 9H115V7H111V9ZM119 9H123V7H119V9ZM127 9H131V7H127V9ZM135 9H139V7H135V9ZM143 9H147V7H143V9ZM151 9H155V7H151V9ZM159 9H163V7H159V9ZM167 9H171V7H167V9ZM175 9H179V7H175V9ZM183 9H187V7H183V9ZM191 9H195V7H191V9ZM199 9H203V7H199V9ZM207 9H211V7H207V9ZM215 9H219V7H215V9ZM223 9H227V7H223V9ZM231 9H233V7H231V9Z" fill="#FFf"/>
</svg>
