<svg width="129" height="60" viewBox="0 0 129 60" fill="none" xmlns="http://www.w3.org/2000/svg">
<mask id="path-1-inside-1_277_5386" fill="white">
<path fill-rule="evenodd" clip-rule="evenodd" d="M63.6306 0.962627C62.2746 1.333 60.9699 2.05983 56.2127 5.09401L51.4624 8.12405L50.4285 7.98983C48.478 7.73653 47.1836 7.82852 46.0782 8.29899C44.8615 8.81675 42.8539 9.92328 40.6796 11.2742C36.8081 13.68 17.3064 26.4791 17.1854 26.6937C16.8058 27.3668 17.6542 28.1694 18.3624 27.8071C18.5478 27.7124 23.8011 24.3132 30.0365 20.2536C42.1565 12.3626 43.7889 11.3416 45.9684 10.2891C47.5072 9.54587 48.246 9.45588 50.2104 9.77223C50.8813 9.88028 51.3669 9.87844 51.7855 9.76672C52.1184 9.6778 54.6116 8.19308 57.3261 6.46731C63.0456 2.83119 63.7383 2.50811 65.5905 2.61233C67.1524 2.70033 68.7519 3.22789 71.5065 4.56339C74.5704 6.04872 74.6443 6.09249 93.725 17.6854C103.345 23.5306 111.377 28.3855 111.573 28.4739C112.26 28.7848 113.023 27.8943 112.595 27.2818C112.467 27.0988 78.6295 6.47037 75.7708 4.8326C72.1184 2.74013 69.1099 1.43968 66.8499 0.976555C65.4733 0.694335 64.6257 0.690661 63.6306 0.962627ZM77.5446 43.2986C74.5092 43.6471 72.2725 45.6517 71.4638 48.7487C71.1451 49.9686 71.142 52.7132 71.4579 53.9272C72.4611 57.7832 75.0355 59.6668 79.0319 59.4686C80.7075 59.3855 82.0244 58.8595 83.1622 57.8187C84.4165 56.6717 85.3441 54.2983 84.7634 53.7221C84.5203 53.4809 83.6396 53.486 83.4466 53.7298C83.3633 53.8351 83.1765 54.236 83.0315 54.621C82.6299 55.6874 81.7383 56.7395 80.7838 57.273C79.9999 57.7112 79.8239 57.7473 78.4701 57.7465C77.1774 57.7459 76.9118 57.6972 76.2146 57.333C75.7799 57.1059 75.1401 56.5997 74.7929 56.2082C72.7383 53.8923 72.7661 48.8253 74.8458 46.5301C75.8257 45.4486 77.1024 44.9023 78.6244 44.913C80.4818 44.926 81.5153 45.5642 82.7341 47.451C83.4782 48.6027 83.9732 48.8716 84.4919 48.4058C85.4606 47.5361 83.8132 44.8955 81.6766 43.8929C80.833 43.4971 80.4366 43.401 78.9329 43.2279C78.7208 43.2034 78.0961 43.2353 77.5446 43.2986ZM99.0621 43.3015C94.9409 43.6929 92.4048 47.1681 92.7107 52.0049C93.0152 56.8167 95.7685 59.5153 100.363 59.505C102.529 59.5003 104.31 58.799 105.604 57.4416C106.929 56.0509 107.576 54.3948 107.727 52.0049C107.938 48.6789 106.712 45.7616 104.51 44.3499C103.099 43.4451 101.266 43.0923 99.0621 43.3015ZM0.725743 43.6768C0.48666 44.3009 0.531392 58.5699 0.774023 59.0482C1.02776 59.5486 1.93087 59.6599 2.31557 59.2381C2.54 58.992 2.58026 58.4738 2.6162 55.3661L2.65769 51.7784L6.86092 51.7377L11.0642 51.697V55.1531C11.0642 59.1674 11.1485 59.4992 12.1715 59.505C13.0956 59.5102 13.0694 59.7455 13.0694 51.4513C13.0694 46.5223 13.0135 43.7729 12.9097 43.5802C12.7033 43.1976 11.6617 43.1685 11.3529 43.5368C11.1948 43.7256 11.1218 44.5858 11.0642 46.9421L10.987 50.0949H6.82236H2.65769L2.58056 46.8809C2.53815 45.1132 2.44729 43.5808 2.37865 43.4755C2.30955 43.3695 1.94676 43.2842 1.565 43.2842C0.967602 43.2842 0.856236 43.3363 0.725743 43.6768ZM41.9097 43.6768C41.8196 43.9119 41.7593 46.9826 41.7593 51.3292C41.7593 58.385 41.768 58.5976 42.0678 58.8951C42.3626 59.1876 42.5819 59.2012 46.9743 59.2012C52.0189 59.2012 52.1636 59.1772 52.0686 58.3555C51.9794 57.5849 51.6385 57.5224 47.505 57.52L43.7645 57.5177V50.697C43.7645 46.288 43.7081 43.7717 43.6049 43.5802C43.4833 43.3551 43.2794 43.2842 42.7527 43.2842C42.1513 43.2842 42.0404 43.3358 41.9097 43.6768ZM60.4286 43.5802C60.3248 43.7728 60.269 46.4914 60.269 51.3517C60.269 59.6924 60.2463 59.5073 61.2716 59.5073C62.2959 59.5073 62.2742 59.6824 62.2742 51.4455C62.2742 46.1697 62.2231 43.9526 62.0951 43.674C61.9438 43.3442 61.8141 43.2842 61.2523 43.2842C60.7538 43.2842 60.5485 43.358 60.4286 43.5802ZM116.477 43.6064C116.197 43.914 116.184 44.2693 116.184 51.5008C116.184 58.8197 116.194 59.0802 116.483 59.2901C116.898 59.5914 117.552 59.5615 117.856 59.2274C118.085 58.9769 118.112 58.3083 118.112 52.8401V46.7327L122.278 52.9287C124.569 56.3365 126.56 59.2109 126.703 59.316C127.087 59.5992 127.898 59.5482 128.313 59.2149L128.678 58.9224L128.722 51.4677C128.772 43.0343 128.804 43.2842 127.68 43.2842C127.348 43.2842 127.02 43.3704 126.951 43.4755C126.883 43.5808 126.792 46.4485 126.749 49.8485L126.672 56.0299L122.606 49.9734C120.369 46.6423 118.406 43.7744 118.242 43.6006C117.835 43.1667 116.875 43.1699 116.477 43.6064ZM23.1951 43.5813C22.8681 43.6468 22.5394 43.7962 22.4647 43.9133C22.3901 44.0302 22.3279 47.4107 22.3265 51.4253L22.3242 58.7248L22.6671 58.9629C22.9603 59.1668 23.7366 59.2012 28.0361 59.2012C33.5433 59.2012 33.6547 59.1842 33.5589 58.3555C33.4685 57.5734 33.162 57.5224 28.5326 57.52L24.3294 57.5177V54.6863V51.8549H28.2517C32.5457 51.8549 32.7297 51.8173 32.6285 50.9591C32.5444 50.2458 32.14 50.1761 28.0699 50.1737L24.3294 50.1714V47.6461V45.1208H28.5043C31.087 45.1208 32.7928 45.0604 32.9774 44.9624C33.3498 44.7647 33.376 44.0166 33.0209 43.7238C32.8195 43.5579 31.8258 43.5084 28.2778 43.4881C25.8092 43.4739 23.5221 43.5158 23.1951 43.5813ZM102.307 45.3331C104.465 46.3135 105.618 48.4143 105.618 51.3676C105.618 53.6741 105.036 55.1871 103.656 56.4675C101.229 58.72 97.4056 58.0878 95.6619 55.1455C94.5809 53.3214 94.5473 49.7537 95.5919 47.722C96.8564 45.2627 99.8258 44.2062 102.307 45.3331Z"/>
</mask>
<path fill-rule="evenodd" clip-rule="evenodd" d="M63.6306 0.962627C62.2746 1.333 60.9699 2.05983 56.2127 5.09401L51.4624 8.12405L50.4285 7.98983C48.478 7.73653 47.1836 7.82852 46.0782 8.29899C44.8615 8.81675 42.8539 9.92328 40.6796 11.2742C36.8081 13.68 17.3064 26.4791 17.1854 26.6937C16.8058 27.3668 17.6542 28.1694 18.3624 27.8071C18.5478 27.7124 23.8011 24.3132 30.0365 20.2536C42.1565 12.3626 43.7889 11.3416 45.9684 10.2891C47.5072 9.54587 48.246 9.45588 50.2104 9.77223C50.8813 9.88028 51.3669 9.87844 51.7855 9.76672C52.1184 9.6778 54.6116 8.19308 57.3261 6.46731C63.0456 2.83119 63.7383 2.50811 65.5905 2.61233C67.1524 2.70033 68.7519 3.22789 71.5065 4.56339C74.5704 6.04872 74.6443 6.09249 93.725 17.6854C103.345 23.5306 111.377 28.3855 111.573 28.4739C112.26 28.7848 113.023 27.8943 112.595 27.2818C112.467 27.0988 78.6295 6.47037 75.7708 4.8326C72.1184 2.74013 69.1099 1.43968 66.8499 0.976555C65.4733 0.694335 64.6257 0.690661 63.6306 0.962627ZM77.5446 43.2986C74.5092 43.6471 72.2725 45.6517 71.4638 48.7487C71.1451 49.9686 71.142 52.7132 71.4579 53.9272C72.4611 57.7832 75.0355 59.6668 79.0319 59.4686C80.7075 59.3855 82.0244 58.8595 83.1622 57.8187C84.4165 56.6717 85.3441 54.2983 84.7634 53.7221C84.5203 53.4809 83.6396 53.486 83.4466 53.7298C83.3633 53.8351 83.1765 54.236 83.0315 54.621C82.6299 55.6874 81.7383 56.7395 80.7838 57.273C79.9999 57.7112 79.8239 57.7473 78.4701 57.7465C77.1774 57.7459 76.9118 57.6972 76.2146 57.333C75.7799 57.1059 75.1401 56.5997 74.7929 56.2082C72.7383 53.8923 72.7661 48.8253 74.8458 46.5301C75.8257 45.4486 77.1024 44.9023 78.6244 44.913C80.4818 44.926 81.5153 45.5642 82.7341 47.451C83.4782 48.6027 83.9732 48.8716 84.4919 48.4058C85.4606 47.5361 83.8132 44.8955 81.6766 43.8929C80.833 43.4971 80.4366 43.401 78.9329 43.2279C78.7208 43.2034 78.0961 43.2353 77.5446 43.2986ZM99.0621 43.3015C94.9409 43.6929 92.4048 47.1681 92.7107 52.0049C93.0152 56.8167 95.7685 59.5153 100.363 59.505C102.529 59.5003 104.31 58.799 105.604 57.4416C106.929 56.0509 107.576 54.3948 107.727 52.0049C107.938 48.6789 106.712 45.7616 104.51 44.3499C103.099 43.4451 101.266 43.0923 99.0621 43.3015ZM0.725743 43.6768C0.48666 44.3009 0.531392 58.5699 0.774023 59.0482C1.02776 59.5486 1.93087 59.6599 2.31557 59.2381C2.54 58.992 2.58026 58.4738 2.6162 55.3661L2.65769 51.7784L6.86092 51.7377L11.0642 51.697V55.1531C11.0642 59.1674 11.1485 59.4992 12.1715 59.505C13.0956 59.5102 13.0694 59.7455 13.0694 51.4513C13.0694 46.5223 13.0135 43.7729 12.9097 43.5802C12.7033 43.1976 11.6617 43.1685 11.3529 43.5368C11.1948 43.7256 11.1218 44.5858 11.0642 46.9421L10.987 50.0949H6.82236H2.65769L2.58056 46.8809C2.53815 45.1132 2.44729 43.5808 2.37865 43.4755C2.30955 43.3695 1.94676 43.2842 1.565 43.2842C0.967602 43.2842 0.856236 43.3363 0.725743 43.6768ZM41.9097 43.6768C41.8196 43.9119 41.7593 46.9826 41.7593 51.3292C41.7593 58.385 41.768 58.5976 42.0678 58.8951C42.3626 59.1876 42.5819 59.2012 46.9743 59.2012C52.0189 59.2012 52.1636 59.1772 52.0686 58.3555C51.9794 57.5849 51.6385 57.5224 47.505 57.52L43.7645 57.5177V50.697C43.7645 46.288 43.7081 43.7717 43.6049 43.5802C43.4833 43.3551 43.2794 43.2842 42.7527 43.2842C42.1513 43.2842 42.0404 43.3358 41.9097 43.6768ZM60.4286 43.5802C60.3248 43.7728 60.269 46.4914 60.269 51.3517C60.269 59.6924 60.2463 59.5073 61.2716 59.5073C62.2959 59.5073 62.2742 59.6824 62.2742 51.4455C62.2742 46.1697 62.2231 43.9526 62.0951 43.674C61.9438 43.3442 61.8141 43.2842 61.2523 43.2842C60.7538 43.2842 60.5485 43.358 60.4286 43.5802ZM116.477 43.6064C116.197 43.914 116.184 44.2693 116.184 51.5008C116.184 58.8197 116.194 59.0802 116.483 59.2901C116.898 59.5914 117.552 59.5615 117.856 59.2274C118.085 58.9769 118.112 58.3083 118.112 52.8401V46.7327L122.278 52.9287C124.569 56.3365 126.56 59.2109 126.703 59.316C127.087 59.5992 127.898 59.5482 128.313 59.2149L128.678 58.9224L128.722 51.4677C128.772 43.0343 128.804 43.2842 127.68 43.2842C127.348 43.2842 127.02 43.3704 126.951 43.4755C126.883 43.5808 126.792 46.4485 126.749 49.8485L126.672 56.0299L122.606 49.9734C120.369 46.6423 118.406 43.7744 118.242 43.6006C117.835 43.1667 116.875 43.1699 116.477 43.6064ZM23.1951 43.5813C22.8681 43.6468 22.5394 43.7962 22.4647 43.9133C22.3901 44.0302 22.3279 47.4107 22.3265 51.4253L22.3242 58.7248L22.6671 58.9629C22.9603 59.1668 23.7366 59.2012 28.0361 59.2012C33.5433 59.2012 33.6547 59.1842 33.5589 58.3555C33.4685 57.5734 33.162 57.5224 28.5326 57.52L24.3294 57.5177V54.6863V51.8549H28.2517C32.5457 51.8549 32.7297 51.8173 32.6285 50.9591C32.5444 50.2458 32.14 50.1761 28.0699 50.1737L24.3294 50.1714V47.6461V45.1208H28.5043C31.087 45.1208 32.7928 45.0604 32.9774 44.9624C33.3498 44.7647 33.376 44.0166 33.0209 43.7238C32.8195 43.5579 31.8258 43.5084 28.2778 43.4881C25.8092 43.4739 23.5221 43.5158 23.1951 43.5813ZM102.307 45.3331C104.465 46.3135 105.618 48.4143 105.618 51.3676C105.618 53.6741 105.036 55.1871 103.656 56.4675C101.229 58.72 97.4056 58.0878 95.6619 55.1455C94.5809 53.3214 94.5473 49.7537 95.5919 47.722C96.8564 45.2627 99.8258 44.2062 102.307 45.3331Z" fill="white" stroke="#FFF8F8" stroke-width="200" mask="url(#path-1-inside-1_277_5386)"/>
</svg>
