<svg width="164" height="21" viewBox="0 0 164 21" fill="none" xmlns="http://www.w3.org/2000/svg">
<path d="M61.4972 17V4.63636H62.9943V10.142H69.5866V4.63636H71.0838V17H69.5866V11.4702H62.9943V17H61.4972ZM78.8411 17V4.63636H86.3028V5.96449H80.3383V10.142H85.9164V11.4702H80.3383V15.6719H86.3994V17H78.8411ZM93.7613 17V4.63636H95.2585V15.6719H101.006V17H93.7613ZM109.581 4.63636V17H108.084V4.63636H109.581ZM127.292 8.5H125.795C125.706 8.06937 125.551 7.69105 125.33 7.36506C125.112 7.03906 124.847 6.76539 124.533 6.54403C124.223 6.31866 123.879 6.14962 123.5 6.03693C123.122 5.92424 122.728 5.8679 122.317 5.8679C121.569 5.8679 120.891 6.05705 120.283 6.43537C119.679 6.81368 119.198 7.37109 118.84 8.1076C118.486 8.84411 118.309 9.74763 118.309 10.8182C118.309 11.8887 118.486 12.7923 118.84 13.5288C119.198 14.2653 119.679 14.8227 120.283 15.201C120.891 15.5793 121.569 15.7685 122.317 15.7685C122.728 15.7685 123.122 15.7121 123.5 15.5994C123.879 15.4867 124.223 15.3197 124.533 15.0984C124.847 14.873 125.112 14.5973 125.33 14.2713C125.551 13.9413 125.706 13.563 125.795 13.1364H127.292C127.179 13.7682 126.974 14.3337 126.676 14.8327C126.378 15.3318 126.008 15.7564 125.565 16.1065C125.122 16.4527 124.625 16.7163 124.074 16.8974C123.527 17.0785 122.941 17.169 122.317 17.169C121.263 17.169 120.325 16.9115 119.504 16.3963C118.683 15.8812 118.037 15.1487 117.566 14.1989C117.095 13.2491 116.86 12.1222 116.86 10.8182C116.86 9.5142 117.095 8.38731 117.566 7.4375C118.037 6.48769 118.683 5.75521 119.504 5.24006C120.325 4.7249 121.263 4.46733 122.317 4.46733C122.941 4.46733 123.527 4.55788 124.074 4.73899C124.625 4.9201 125.122 5.18572 125.565 5.53587C126.008 5.88198 126.378 6.30457 126.676 6.80362C126.974 7.29865 127.179 7.86411 127.292 8.5ZM144.903 10.8182C144.903 12.1222 144.667 13.2491 144.196 14.1989C143.726 15.1487 143.08 15.8812 142.259 16.3963C141.438 16.9115 140.5 17.169 139.445 17.169C138.391 17.169 137.453 16.9115 136.632 16.3963C135.811 15.8812 135.165 15.1487 134.694 14.1989C134.223 13.2491 133.988 12.1222 133.988 10.8182C133.988 9.5142 134.223 8.38731 134.694 7.4375C135.165 6.48769 135.811 5.75521 136.632 5.24006C137.453 4.7249 138.391 4.46733 139.445 4.46733C140.5 4.46733 141.438 4.7249 142.259 5.24006C143.08 5.75521 143.726 6.48769 144.196 7.4375C144.667 8.38731 144.903 9.5142 144.903 10.8182ZM143.454 10.8182C143.454 9.74763 143.275 8.84411 142.917 8.1076C142.562 7.37109 142.082 6.81368 141.474 6.43537C140.87 6.05705 140.194 5.8679 139.445 5.8679C138.697 5.8679 138.019 6.05705 137.411 6.43537C136.807 6.81368 136.326 7.37109 135.968 8.1076C135.614 8.84411 135.437 9.74763 135.437 10.8182C135.437 11.8887 135.614 12.7923 135.968 13.5288C136.326 14.2653 136.807 14.8227 137.411 15.201C138.019 15.5793 138.697 15.7685 139.445 15.7685C140.194 15.7685 140.87 15.5793 141.474 15.201C142.082 14.8227 142.562 14.2653 142.917 13.5288C143.275 12.7923 143.454 11.8887 143.454 10.8182ZM161.984 4.63636V17H160.535L153.798 7.29261H153.677V17H152.18V4.63636H153.629L160.39 14.3679H160.511V4.63636H161.984Z" fill="white"/>
<path d="M1 16L16.5961 5.75997C16.9222 5.54588 17.3037 5.43182 17.6938 5.43182H18.9264C19.2969 5.43182 19.6602 5.32888 19.9756 5.13449L25.6351 1.64693C26.2787 1.25031 27.091 1.2505 27.7344 1.64744L51 16" stroke="#2ABDFC"/>
</svg>
