<svg width="20" height="20" viewBox="0 0 20 20" fill="none" xmlns="http://www.w3.org/2000/svg">
<circle cx="10" cy="10" r="10" transform="matrix(-1 0 0 1 20 0)" fill="white"/>
<path d="M12.2558 10.3805C12.4658 10.1569 12.4548 9.8053 12.2312 9.59523L8.58697 6.17185C8.36335 5.96178 8.01176 5.97276 7.80168 6.19639C7.59161 6.42002 7.6026 6.77161 7.82622 6.98168L11.0655 10.0247L8.02255 13.264C7.81247 13.4876 7.82346 13.8392 8.04709 14.0493C8.27072 14.2594 8.6223 14.2484 8.83238 14.0248L12.2558 10.3805ZM11.4978 10.567L11.8682 10.5554L11.8335 9.44486L11.4631 9.45643L11.4978 10.567Z" fill="#323232"/>
</svg>
