<svg width="54" height="54" viewBox="0 0 54 54" fill="none" xmlns="http://www.w3.org/2000/svg">
<circle cx="27" cy="27" r="27" transform="matrix(-1 0 0 1 54 0)" fill="#323232"/>
<path d="M33.0933 28.027C33.6605 27.4232 33.6308 26.4739 33.027 25.9067L23.1876 16.6636C22.5838 16.0964 21.6345 16.1261 21.0673 16.7299C20.5001 17.3337 20.5297 18.2829 21.1335 18.8502L29.8797 27.0663L21.6636 35.8124C21.0964 36.4162 21.1261 37.3655 21.7299 37.9327C22.3337 38.4999 23.2829 38.4703 23.8502 37.8665L33.0933 28.027ZM31.0469 28.5305L32.0469 28.4993L31.9531 25.5007L30.9531 25.532L31.0469 28.5305Z" fill="white"/>
</svg>
