<svg width="37" height="37" viewBox="0 0 37 37" fill="none" xmlns="http://www.w3.org/2000/svg">
<path fill-rule="evenodd" clip-rule="evenodd" d="M0 18.5C0 8.28273 8.28273 0 18.5 0C28.7173 0 37 8.28273 37 18.5C37 28.7173 28.7173 37 18.5 37C8.28273 37 0 28.7173 0 18.5ZM18.4874 18.797C21.2155 18.797 23.433 16.6561 23.433 14.0242C23.433 11.3915 21.2155 9.25 18.4874 9.25C15.76 9.25 13.5418 11.3915 13.5418 14.0242C13.5418 16.6561 15.76 18.797 18.4874 18.797ZM23.3729 21.5456C22.4786 22.0877 21.5078 22.4722 20.5011 22.6936L23.2658 25.3626C23.8322 25.9082 23.8322 26.7942 23.2658 27.3404C22.7 27.8865 21.783 27.8865 21.2178 27.3404L18.4995 24.7176L15.7836 27.3404C15.5004 27.6132 15.1293 27.7497 14.7583 27.7497C14.3878 27.7497 14.0173 27.6132 13.7341 27.3404C13.1683 26.7942 13.1683 25.9088 13.7335 25.3626L16.4985 22.6936C15.4918 22.4722 14.5209 22.0872 13.6267 21.5456C12.9499 21.1337 12.7466 20.2708 13.173 19.6169C13.5983 18.9622 14.4925 18.7651 15.1705 19.177C17.1951 20.4064 19.8033 20.4067 21.8291 19.177C22.5071 18.7651 23.401 18.9622 23.8271 19.6169C24.2535 20.2702 24.0497 21.1337 23.3729 21.5456Z" fill="white"/>
</svg>
