<svg width="56" height="48" viewBox="0 0 56 48" fill="none" xmlns="http://www.w3.org/2000/svg">
<g clip-path="url(#clip0_122_11131)">
<path d="M54.3644 17.9187C54.2147 17.7655 54.1268 17.6255 54.0028 17.4307C53.9383 17.3322 53.8686 17.2258 53.7911 17.1116C54.0055 16.8624 54.1862 16.5743 54.3231 16.2579L54.8706 15.0045L53.5226 14.8097C53.2954 14.7761 52.9286 14.6801 52.4999 14.5659C51.6736 14.3478 50.6123 14.0677 49.4553 13.9456C49.8504 13.7718 50.1862 13.4578 50.4211 13.0322L50.6433 12.63C50.6433 12.63 50.5838 12.0668 50.3669 11.8905C50.4497 11.7165 50.5142 11.5245 50.5581 11.3143L50.7414 10.4164L49.8788 10.1206C49.7446 10.0738 49.6104 10.0402 49.4785 10.0194C49.4295 9.85585 49.3572 9.68202 49.2591 9.49781L48.7478 8.55579L47.8259 9.09815C47.596 9.23314 47.4024 9.38876 47.2449 9.5627C47.108 9.53665 46.9608 9.52374 46.8058 9.52374C46.8058 9.52374 46.2791 9.46403 45.698 9.67683L44.9543 8.90092L44.0737 7.95636C43.2499 7.0714 42.1344 6.80937 40.9982 7.24534C40.5644 6.80937 39.8877 6.44858 38.8368 6.44858C38.4804 6.44858 38.1678 6.49272 37.9845 6.51611C37.9845 6.51611 36.5384 6.78078 35.7249 7.55669L34.7385 7.08442C34.0775 8.13019 32.9463 8.46241 32.9463 8.46241C32.8689 8.15613 32.7372 7.87071 32.5487 7.60858L32.6133 7.24005C32.6133 7.22967 32.8353 5.98148 33.5119 4.92268L34.6894 3.08025L33.0213 3.26965C33.0264 3.10365 33.0187 2.90641 32.9954 2.67287L32.8456 1.24036L31.5389 1.8346C31.3943 1.8995 31.273 1.9644 31.1594 2.02411L30.9011 1.47136L30.3021 1.78272C30.2427 1.63483 30.1651 1.46618 30.0593 1.27148L29.3699 0L28.3911 1.06134C28.2904 1.17027 28.2051 1.27148 28.1329 1.3675L27.5389 0.773266L26.9399 1.37016C26.8648 1.27414 26.7822 1.17292 26.6816 1.06387L25.6925 0L25.0005 1.27667C24.8946 1.47136 24.8197 1.63737 24.7603 1.78538L24.1638 1.4739L23.9055 2.02665C23.7919 1.96693 23.6706 1.90214 23.5259 1.8346L22.2142 1.24301L22.0695 2.6806C22.0462 2.91161 22.0385 3.10619 22.0437 3.2723L20.3729 3.0829L21.553 4.92533C22.2322 5.98148 22.4491 7.22967 22.4491 7.24005L22.511 7.60858C22.3226 7.87325 22.1884 8.15878 22.1133 8.46495C22.1133 8.46495 21.0443 8.00559 20.329 7.08442L19.3219 7.56708C18.1727 6.78851 17.46 6.48499 16.2205 6.44858C15.1694 6.42009 14.4929 6.80937 14.059 7.24534C12.9202 6.81191 11.8072 7.07404 10.9861 7.9589C10.9861 7.9589 10.4464 8.54795 10.1055 8.90356C9.76453 9.26161 9.261 9.55751 9.261 9.55751C9.261 9.55751 8.54574 9.39659 7.80973 9.56524C7.65228 9.3914 7.45595 9.23567 7.22357 9.09815L6.29903 8.55579L5.79033 9.50299C5.69221 9.68466 5.62245 9.85585 5.57597 10.0194C5.44434 10.0402 5.31008 10.0738 5.17582 10.1206L4.3184 10.4216L4.49661 11.3143C4.54045 11.5298 4.60242 11.7217 4.68757 11.8957C4.63857 11.9917 4.59472 12.0928 4.55858 12.1992L4.41399 12.6325L4.6334 13.0347C4.86588 13.4578 5.19901 13.7744 5.59663 13.9483C4.43717 14.0703 3.37847 14.3505 2.54949 14.5685C2.12343 14.6801 1.75671 14.7786 1.52944 14.8124L0.17631 15.0097L0.483574 15.7103L0.728972 16.2682C0.868318 16.5795 1.05173 16.8676 1.2635 17.1168C1.18339 17.231 0.842498 17.7681 0.690182 17.9213L0.00585938 18.6193L0.661821 19.3459C0.744464 19.4341 1.48044 20.2101 2.67082 20.2127C2.99623 20.2127 3.31903 20.1556 3.63919 20.0414C3.95683 20.5397 4.33389 21.0457 4.67725 21.2947C4.04461 22.0422 3.32419 22.691 2.29904 23.1815L1.44165 23.5914L1.81089 24.5749C2.05112 25.1692 2.51851 25.8205 3.42231 26.0697C3.22861 26.651 3.13566 27.201 3.05304 27.6915C2.8594 28.8567 2.77676 29.3394 1.75671 29.7001L0.839967 30.022L1.10339 30.9613C1.31515 31.7269 1.63275 32.2329 1.97617 32.5677L1.3668 33.2423C1.3668 33.2423 2.81291 34.3323 4.23052 34.4646C4.25127 34.4672 5.45973 34.5451 6.00205 33.8497C6.21904 34.6384 6.56239 35.365 6.87495 36.0242C7.51528 37.3789 7.8562 38.1807 7.4275 38.9124L6.45911 40.5629L8.36237 40.4825C9.19387 40.4487 9.96603 40.3969 10.6348 40.2307C10.6348 40.2671 10.6323 40.3009 10.6296 40.3346L10.4747 41.7515L12.1429 41.3985C12.3186 41.3466 12.4838 41.2765 12.6336 41.1962C13.6664 42.4106 15.4225 43.3578 17.788 43.3578H17.9249L15.2056 44.4788L17.1862 45.5143C18.4904 46.1967 19.9391 46.7677 21.5918 47.2529L21.3619 48.0496L22.3561 48.3428C22.9294 48.5115 25.0031 49.0642 27.5286 49.0642C30.0541 49.0642 32.1252 48.5115 32.701 48.3428L33.6927 48.0496L33.4627 47.2556C35.1181 46.7703 36.5669 46.1993 37.8709 45.5169L39.8515 44.4814L37.1297 43.3604H37.2667C39.6321 43.3604 41.3854 42.4133 42.4185 41.1987C42.5683 41.2792 42.7335 41.3493 42.9091 41.4011L44.5772 41.7541L44.425 40.3398C44.4223 40.3061 44.4198 40.2698 44.4198 40.2334C45.086 40.3994 45.8607 40.4487 46.6897 40.4851L48.5929 40.5655L47.6295 38.9176C47.1984 38.1859 47.5418 37.3841 48.1798 36.0295C48.4921 35.3703 48.8356 34.6436 49.0526 33.8548C49.4192 34.135 49.8143 34.3037 50.2069 34.392C50.2069 34.392 50.5116 34.4827 50.8033 34.4905C51.6452 34.5165 52.0662 34.2753 52.6445 33.9093L53.6955 33.2449L53.0809 32.5702C53.4245 32.2381 53.742 31.7321 53.9538 30.969L54.2198 30.0272L53.3005 29.7053C52.2778 29.3446 52.1978 28.8619 52.0042 27.6967C51.9216 27.2062 51.8311 26.6535 51.6348 26.0749C52.5387 25.8232 53.0035 25.1717 53.2436 24.5801L53.6104 23.594L52.753 23.184C51.7278 22.6935 51.0074 22.0447 50.3721 21.2974C50.7181 21.0483 51.0951 20.5423 51.4154 20.0441C51.7329 20.1582 52.0558 20.2127 52.3838 20.2153C53.5742 20.2153 54.3128 19.4394 54.3929 19.3511L55.0487 18.6245L54.3644 17.9187Z" fill="white"/>
<path fill-rule="evenodd" clip-rule="evenodd" d="M19.1367 30.7069V22.792C19.1367 22.055 18.925 21.318 18.6719 20.6406H24.7844C25.3448 21.414 26.3622 21.933 27.5294 21.933C28.6915 21.933 29.7089 21.414 30.2719 20.6406H36.3843C36.126 21.3206 35.9169 22.055 35.9169 22.792V30.7069H19.1367ZM27.5268 41.523C26.672 40.6692 26.0626 40.5758 23.7592 40.5758C21.0064 40.5758 19.1367 38.9538 19.1367 36.3614V31.1713H35.9144V36.3614C35.9144 38.9538 34.0472 40.5758 31.2893 40.5758C28.9884 40.5732 28.379 40.6692 27.5268 41.523Z" fill="#FFDD2D"/>
<path d="M20.1102 42.502V44.0823L18.7441 44.6351C19.8984 45.1619 21.3317 45.686 23.0153 46.0727L23.79 43.5373C22.1374 43.1973 20.9856 42.8418 20.1102 42.502Z" fill="white"/>
<path d="M27.5265 44.6428C25.9124 44.6428 24.5541 44.4742 24.0119 44.3496L23.1934 47.0095C24.4793 47.3261 25.9848 47.5596 27.5265 47.5596C29.0629 47.5596 30.5685 47.3288 31.8597 47.0095L31.0385 44.3496C30.4962 44.4767 29.143 44.6428 27.5265 44.6428Z" fill="white"/>
<path d="M34.9435 42.502C34.0656 42.8418 32.9163 43.1948 31.2637 43.54L32.0409 46.0753C33.7273 45.6887 35.1553 45.1644 36.3095 44.6376L34.9462 44.0848V42.502H34.9435Z" fill="white"/>
<path d="M17.2493 17.0063C19.3876 15.8462 24.6142 13.2927 21.0711 10.5394C20.5882 10.1657 20.0563 9.82836 19.6095 9.41061C19.057 9.83874 19.8162 10.9027 20.0072 11.292C20.0072 11.292 18.827 11.4113 18.5456 11.4113C16.7225 11.4036 14.8115 10.3188 15.7799 8.24023C15.0542 8.39067 14.9664 9.09141 14.7445 9.69084C14.2796 9.37419 13.4713 8.6943 12.849 8.79032C13.3551 10.4175 15.4856 11.8836 17.1382 12.2158C15.4674 13.1293 12.3687 13.8091 10.7392 11.8421C9.59522 14.0661 11.1884 14.9951 12.7509 16.1603C6.80366 18.8876 7.68173 21.9471 3.77982 24.3554C4.28589 24.5941 6.54283 24.114 6.74433 24.0855C5.89724 25.1883 5.50215 25.6555 5.25428 26.1926C5.01664 26.6961 4.91083 27.2644 4.67582 28.4893C4.49245 29.4572 4.15669 30.4226 2.98438 31.0636C3.44407 31.8991 4.4641 31.2452 4.89017 31.1336C4.83337 31.2218 4.68868 32.2287 4.30654 32.714C6.31045 32.5842 5.38338 28.3387 7.38729 29.3612C7.95279 29.6466 8.1233 30.3162 7.86237 30.8637C6.54536 33.5936 9.53842 35.9993 9.3756 38.392C10.1117 38.3868 10.8735 38.3659 11.3538 37.3668C11.6043 37.8651 11.9916 38.5658 12.2085 39.2405L12.8077 38.2155C13.1769 39.9125 14.7522 41.4801 16.88 41.6201C15.8652 40.006 17.0815 37.8028 14.6154 35.4595C14.9226 35.2104 15.6328 34.7303 15.8858 34.4033C12.8593 34.7615 9.70103 32.3559 11.1343 31.2141C12.0717 30.4693 12.4823 32.0159 13.9284 31.7564L13.3629 31.2659C13.5616 31.0687 13.7889 30.8119 14.0239 30.6172C13.4093 30.5419 12.7379 30.1474 12.7379 30.1474L13.1046 29.5376C9.55907 29.5324 9.46866 26.8077 10.9096 26.6986C11.5862 26.6494 12.4616 27.9028 14.6437 27.6407C14.3648 27.3034 14.2538 26.7922 14.122 26.4159C14.6489 26.3666 15.2687 26.3718 15.767 26.1278C14.7005 25.9903 14.4319 25.6295 13.5436 24.9548L14.574 24.576C13.0788 23.826 13.1692 22.5207 13.1227 21.1609C13.9052 21.6124 14.8245 22.313 15.8057 21.9886C16.0382 21.9108 16.1879 21.8018 16.1931 21.5578C14.7935 20.9948 13.8949 18.8279 17.2493 17.0063ZM14.6954 17.219C12.8232 19.2301 13.6339 20.4343 14.011 20.8054C13.3138 20.6548 12.2732 19.7621 12.5106 18.898C12.2887 19.1653 12.0614 19.456 11.829 19.7544C11.3641 20.3773 10.9484 20.987 10.5791 21.5786C10.011 23.2758 11.0517 25.0276 12.8232 25.8034C10.8554 25.5128 9.97229 23.7533 9.97746 22.6322C9.03742 24.4176 8.58805 26.0474 8.62936 27.415C8.64749 27.9235 8.69133 28.3984 8.75846 28.8473C9.21046 29.7089 9.93614 30.0255 11.2298 30.1839C10.0549 30.2592 9.43241 30.2046 8.92118 29.6647C9.72169 33.124 13.4661 36.1186 14.9897 38.6825C13.4635 36.6896 10.3053 33.7209 9.20013 31.5748C9.11488 32.3507 9.32143 34.3384 10.282 35.5607C8.86691 34.162 8.75593 32.0445 8.84888 30.804C8.49004 29.9114 8.26272 28.9149 8.23174 27.7809C8.20329 26.7377 8.27559 25.8319 8.43314 25.0197C7.53957 26.2964 6.24849 26.7895 5.61312 28.7332C5.73716 26.2263 7.59911 26.1874 8.99357 23.1435C9.53326 21.8123 10.3182 20.6626 11.1859 19.3599C10.0833 19.7233 9.25694 19.9828 7.98114 21.3867C8.88756 19.2328 14.1246 16.8115 16.5237 14.4683C15.8032 14.6213 12.8619 14.6967 11.6404 13.8766C13.8535 14.4786 18.778 13.791 20.6373 12.5142C19.3539 14.3697 16.5599 14.4761 13.1588 18.1662C13.5926 17.8185 14.1712 17.4682 14.6954 17.219Z" fill="white"/>
<path d="M50.3754 28.4872C50.1405 27.2625 50.0372 26.6942 49.7996 26.1907C49.5543 25.6535 49.1567 25.1864 48.307 24.0835C48.5084 24.112 50.7706 24.5921 51.2742 24.3534C47.3723 21.9452 48.2502 18.8857 42.3005 16.1584C43.8628 14.9931 45.4561 14.0642 44.3121 11.8375C42.6827 13.8072 39.5838 13.1273 37.913 12.2113C39.5683 11.8791 41.6962 10.4154 42.2024 8.78586C41.5773 8.68984 40.7691 9.36973 40.3044 9.68373C40.0822 9.0842 39.9969 8.38356 39.2714 8.23047C40.2398 10.3116 38.3263 11.3964 36.5006 11.4042C36.2216 11.4042 35.0441 11.2847 35.0441 11.2847C35.2326 10.8956 35.9919 9.83162 35.4365 9.40339C34.9899 9.82379 34.463 10.1586 33.9775 10.5323C30.432 13.2856 35.6638 15.8417 37.8021 16.9991C41.1513 18.8208 40.2604 20.9877 38.8583 21.543C38.8634 21.787 39.0132 21.8959 39.2482 21.9738C40.2243 22.3007 41.1488 21.6001 41.926 21.1459C41.8821 22.5058 41.975 23.8136 40.4799 24.561L41.5077 24.9399C40.6194 25.6147 40.3534 25.9754 39.2869 26.1129C39.7827 26.3567 40.4076 26.3515 40.9318 26.401C40.7976 26.7771 40.6814 27.2885 40.4076 27.6257C42.5923 27.8852 43.4704 26.6345 44.1417 26.6838C45.5774 26.7928 45.4923 29.5175 41.9441 29.5227L42.3108 30.1326C42.3108 30.1326 41.6394 30.527 41.0221 30.6022C41.2573 30.7943 41.487 31.0537 41.6859 31.251L41.1204 31.7415C42.5639 32.001 42.977 30.4543 43.9143 31.1991C45.3476 32.3409 42.192 34.7466 39.1629 34.3884C39.4186 34.7154 40.1287 35.1981 40.436 35.4472C37.9673 37.788 39.1809 39.9937 38.1712 41.6104C40.294 41.4677 41.8692 39.9003 42.2437 38.2031L42.8428 39.2282C43.0571 38.5535 43.4496 37.8527 43.6949 37.3545C44.1726 38.3536 44.9396 38.3743 45.6782 38.3795C45.5103 35.9869 48.5007 33.5813 47.1888 30.8513C46.9255 30.3065 47.0958 29.6369 47.6614 29.3488C49.6705 28.3264 48.7383 32.5719 50.7448 32.7016C50.36 32.2164 50.218 31.2095 50.1637 31.1213C50.5873 31.2329 51.6048 31.8868 52.0644 31.0485C50.8997 30.4207 50.5641 29.4553 50.3754 28.4872ZM46.6233 25.0151C46.7809 25.83 46.8609 26.733 46.8248 27.7763C46.7913 28.9103 46.5665 29.9068 46.2075 30.7995C46.2979 32.04 46.1895 34.1576 44.7743 35.5562C45.7324 34.3313 45.9416 32.3461 45.8564 31.5702C44.7459 33.7164 41.5904 36.685 40.0615 38.678C41.5876 36.1141 45.3321 33.1168 46.1352 29.6603C45.6188 30.1974 45.0016 30.2546 43.824 30.1792C45.1152 30.021 45.8409 29.7043 46.2927 28.8428C46.3599 28.3964 46.4039 27.919 46.4219 27.4104C46.4658 26.0428 46.0139 24.4131 45.0739 22.6278C45.0817 23.7488 44.1985 25.5083 42.2282 25.7988C43.9945 25.0203 45.0378 23.2687 44.4723 21.5741C44.1055 20.9825 43.6924 20.3701 43.2224 19.7498C42.9899 19.4513 42.7627 19.1608 42.5381 18.8934C42.7757 19.7575 41.735 20.6503 41.0376 20.8008C41.4173 20.4298 42.2256 19.2257 40.356 17.2145C40.8802 17.4636 41.4586 17.814 41.895 18.1565C38.494 14.4664 35.7026 14.3625 34.4139 12.5045C36.2758 13.7812 41.2004 14.4715 43.4108 13.867C42.192 14.6868 39.2482 14.6117 38.5277 14.4585C40.9267 16.8019 46.1689 19.223 47.0727 21.3769C45.797 19.973 44.9681 19.7135 43.8705 19.3502C44.7408 20.6555 45.5206 21.8025 46.0604 23.1337C47.4574 26.1778 49.3219 26.2141 49.4432 28.7235C48.808 26.7849 47.5194 26.2919 46.6233 25.0151Z" fill="white"/>
<path d="M30.2691 20.6387C29.7087 21.412 28.6887 21.931 27.5292 21.931C27.258 21.931 26.9972 21.8999 26.7493 21.8531C26.8191 22.1723 26.9817 22.5019 27.32 22.7847C27.1832 23.7113 27.5809 24.578 28.57 24.8037C28.6758 25.2761 28.965 25.6316 29.4557 25.8002L28.7661 26.5995C28.5001 26.9057 28.1541 27.0043 27.8753 26.968L24.7972 26.6176C24.9313 26.2752 24.575 25.8781 23.5988 26.0468L24.8075 22.6472L24.0714 21.072L22.6744 22.271L22.5711 25.8365L21.9694 25.5433C21.1947 25.206 20.9648 26.6255 21.7035 26.6306L22.0004 26.6332C21.9798 26.7786 22.0263 26.9395 22.1424 26.9913C22.003 27.0484 21.9616 27.3106 22.1347 27.4039C21.9591 27.4896 21.9333 27.7595 22.0753 27.8762C21.9229 28.1384 21.8944 28.7066 22.4343 28.8493C22.8784 28.9662 23.1573 28.4887 23.2477 28.211L28.0379 29.7005C28.7119 29.8952 29.1974 29.7862 29.7603 29.2905L31.0103 28.1929C30.8526 28.9118 31.1083 29.5578 31.6532 29.7733C31.6532 29.7733 31.568 30.4324 31.6016 30.7048L33.2776 30.7075H35.9166V22.7926C35.9166 22.0556 36.1259 21.3186 36.3841 20.6387H33.2776H30.2691Z" fill="white"/>
<path d="M23.0961 33.9565L23.189 34.0732C23.3181 34.234 23.3956 34.1952 23.5428 34.1096L23.7597 33.9928C23.8966 33.8889 24.7875 34.2315 24.8365 33.4868C24.9348 34.0421 24.2762 35.2124 24.6739 35.8663L25.2084 36.7461L23.4627 36.772C23.2717 36.772 23.171 36.8888 23.1194 36.9926L22.6622 37.945C22.5433 38.1967 22.5511 38.4562 22.701 38.63L23.0108 38.9804C23.0108 38.9804 23.264 38.765 23.3465 38.4821L23.2097 38.3395C23.0961 38.2305 23.0961 38.1266 23.1581 37.9918L23.4394 37.4053C23.548 37.1742 23.6591 37.125 23.9069 37.1846L25.3194 37.4909C25.4228 37.5168 25.5907 37.5662 25.6913 37.3923C25.8644 37.0834 26.169 37.0627 26.479 37.112C27.2536 37.2287 29.0432 37.4157 29.6811 36.6657C30.4299 37.6647 31.8941 37.6647 31.7986 38.1888L31.4887 39.9068H31.9535L32.2376 38.15C32.2686 37.945 32.3951 37.6647 32.1756 37.5065C32.0853 37.4364 32.044 37.4001 31.8398 37.0471C31.574 36.58 31.5869 35.8793 31.3311 35.2748C31.574 34.9867 31.8373 34.888 32.0672 34.9425C32.5837 35.0697 32.7231 35.965 33.4565 36.6942C33.3739 36.3698 33.3377 36.0143 33.1646 35.7056C33.1646 35.7056 33.6733 36.1026 33.8051 36.5671C33.8878 36.8577 33.973 37.0705 34.2337 37.2054C34.4068 37.2677 34.6134 37.1846 34.82 36.9356C34.82 36.9356 34.3371 36.2452 33.9833 35.7937C33.4978 35.1735 32.8495 34.5507 31.9665 34.6233C31.6876 34.6467 31.4189 34.7739 31.1634 34.927C30.1588 34.3612 29.379 34.9607 29.069 34.9607L27.1891 34.8492C26.8199 34.8258 26.528 34.395 26.528 34.395C26.4815 32.7965 25.2033 32.1606 24.7617 32.1606C24.7617 32.1606 24.803 31.8727 24.6868 31.7715L24.2942 32.267L23.2045 31.8675L24.0593 32.5706L23.1322 33.6528C23.0368 33.7592 23.0496 33.8992 23.0961 33.9565Z" fill="white"/>
<path d="M21.8619 36.2C21.5987 36.405 21.6115 36.6905 21.7691 37.0097L21.9265 37.3054L22.3371 36.9915L22.2441 36.789C22.177 36.6464 22.1797 36.5011 22.2958 36.4102L22.8846 35.9639C23.0499 35.8419 23.1016 35.8289 23.2771 35.8549L24.5192 36.117C24.5192 36.117 24.3308 35.8419 24.2687 35.5616L23.0989 35.406C22.9337 35.3852 22.8329 35.4552 22.6883 35.5668L21.8619 36.2Z" fill="white"/>
<path d="M29.8066 39.9056H30.2767L31.0307 38.0398C31.0565 37.9748 31.0927 37.9463 31.1211 37.8918C30.7827 37.7569 30.584 37.6635 30.3025 37.5C30.4909 37.7543 30.6381 37.8633 30.5607 38.0995L29.8066 39.9056Z" fill="white"/>
<path d="M30.2066 14.6692L31.0768 9.64258L27.7793 10.7689V15.9511L30.2066 14.6692ZM28.337 11.2775L30.5242 10.4679C30.5242 10.4679 30.0981 10.8156 29.5894 11.1659C29.1375 11.4799 28.337 11.8147 28.337 11.8147V11.2775ZM28.337 12.4945L30.3383 11.7758C30.3383 11.7758 30.0981 12.03 29.5919 12.3803C29.14 12.6918 28.3396 13.0266 28.3396 13.0266V12.4945H28.337ZM28.337 13.7869L30.0981 13.107C30.0981 13.107 30.0981 13.3223 29.5894 13.6701C29.1375 13.9842 28.337 14.3189 28.337 14.3189V13.7869Z" fill="white"/>
<path d="M24.3404 19.1144L24.4127 19.2312H25.0919L25.0996 19.3505C25.1074 19.4647 25.1332 19.5815 25.1719 19.7009C25.2778 20.0252 25.487 20.3652 25.8226 20.6403C26.2125 20.9568 26.7755 21.1852 27.5244 21.1852C29.1487 21.1852 29.8821 20.1291 29.9518 19.3505L29.957 19.2312H30.6386L30.711 19.1144C31.3515 18.1075 32.134 16.989 33.0429 16.8282L30.5638 15.3828L27.5244 17.0435L24.4823 15.3828L22.0059 16.8282C22.9149 16.9864 23.6974 18.1075 24.3404 19.1144Z" fill="white"/>
<path d="M27.269 15.9511V10.7689L23.9766 9.64258L24.8416 14.6692L27.269 15.9511ZM26.7139 14.3241C26.7139 14.3241 25.9132 13.9867 25.4613 13.6753C24.9526 13.3275 24.9526 13.1096 24.9526 13.1096L26.7164 13.7894V14.3241H26.7139ZM26.7139 11.2775V11.8147C26.7139 11.8147 25.9132 11.4799 25.4613 11.1659C24.95 10.8156 24.5214 10.4679 24.5214 10.4679L26.7139 11.2775ZM26.7139 12.4945V13.0291C26.7139 13.0291 25.9132 12.6944 25.4613 12.383C24.95 12.0326 24.7126 11.7784 24.7126 11.7784L26.7139 12.4945Z" fill="white"/>
<path d="M27.5263 7.42773C25.6437 7.42773 24.2312 8.04802 23.9238 8.7746L27.5263 10.2045L31.1236 8.7746C30.8188 8.04802 29.4088 7.42773 27.5263 7.42773Z" fill="white"/>
<path d="M27.5266 5.35168C28.9134 5.35168 30.3026 5.77462 31.2373 6.32217C31.3898 5.81612 31.5524 5.45543 31.7746 5.04286L30.9224 5.1752L30.2328 3.69599L28.9444 4.38371L27.5266 2.97461L26.1063 4.38371L24.8203 3.69599L24.1256 5.1752L23.2734 5.04286C23.4955 5.45543 23.6556 5.81612 23.8132 6.32217C24.7506 5.77462 26.1348 5.35168 27.5266 5.35168Z" fill="white"/>
<path d="M51.0265 16.7422C51.4913 16.6825 51.8658 16.5267 52.3229 16.1843C51.339 15.9221 49.2782 15.1721 47.5197 15.5095C46.9386 15.5873 46.6159 15.8236 46.8224 15.9584C47.7676 16.5889 48.9348 18.0501 49.7843 19.755C50.5307 18.8234 50.2182 17.6011 50.0607 17.2508C51.5481 18.1513 51.9381 18.5898 52.6276 18.4185C52.2583 17.8501 51.7392 17.3389 51.0265 16.7422Z" fill="white"/>
<path d="M5.26898 19.754C6.1186 18.0491 7.28575 16.5882 8.23349 15.9576C8.44531 15.8226 8.11725 15.5864 7.54142 15.5086C5.78021 15.1738 3.71444 15.9212 2.73052 16.1833C3.19278 16.5258 3.55942 16.6815 4.02944 16.7412C3.31418 17.3406 2.79503 17.8493 2.42578 18.4177C3.12048 18.5889 3.50778 18.1503 4.99256 17.2499C4.84028 17.6028 4.52517 18.8225 5.26898 19.754Z" fill="white"/>
<path fill-rule="evenodd" clip-rule="evenodd" d="M15.5796 35.577C16.2639 35.0319 16.8319 34.7596 16.8035 33.4387C15.7757 33.968 12.8603 33.9395 11.6414 32.2527C11.298 31.7726 11.6647 31.5313 11.9977 31.9102C12.8319 32.8599 14.3761 32.4292 14.9391 32.1567C14.8487 31.8298 14.5982 31.4042 14.389 31.2225C14.6009 31.0149 15.1974 30.7035 15.3187 30.1689C15.0011 29.9951 13.7641 29.8704 13.7641 29.8704C13.963 29.6784 14.2108 29.4112 14.0612 28.6976C12.7983 29.0869 11.236 28.5573 10.8822 28.0877C10.5336 27.6258 10.89 27.1924 11.1843 27.4987C11.8145 28.163 14.9184 28.9233 16.0728 27.7686C15.6441 27.6491 15.1715 27.265 15.0863 27.0263C16.1554 26.9174 17.0076 26.2841 17.0773 25.4952C16.4859 25.4952 15.3703 25.4512 14.9882 25.1656C15.4995 24.9762 15.8248 24.7894 15.9875 24.2133C14.0327 24.0939 13.8777 22.6355 13.8674 22.3942C15.1405 23.1312 17.382 22.8042 16.8009 20.9877C15.7422 20.9306 14.6757 19.2101 17.586 17.6297C20.233 16.1895 23.2413 14.6376 22.9754 12.0815C22.8023 10.4466 20.1245 9.33074 19.7836 8.50296C18.6654 9.03748 18.4408 9.65777 18.9443 10.6984C18.9443 10.6984 16.4524 10.9474 16.2561 9.40602C16.1709 8.71575 16.6305 8.06963 17.1238 7.57396C16.8448 7.57396 14.9674 7.06791 14.4019 8.60417C13.3509 7.88278 12.4497 7.90872 11.7422 8.67161C12.8732 9.34631 13.573 11.6611 15.4427 12.3437C14.1127 13.0676 11.9616 12.764 10.7066 10.5374C9.51874 12.3359 8.83437 14.116 11.3832 16.0181C6.74784 18.1383 6.78145 22.1918 2.74777 24.1225C3.15577 25.2254 4.01824 25.2254 5.11847 25.054C3.37528 27.3299 4.86017 29.7122 2.09961 30.6853C2.35786 31.6143 2.87689 32.3565 3.89441 32.0841C3.60513 32.5382 3.41406 32.5278 2.9647 33.0261C4.47277 33.981 6.26243 33.2907 6.66785 30.2259C6.74014 29.6784 7.48902 30.021 7.23072 30.5582C5.51082 34.1315 9.85967 36.82 8.32051 39.441C9.67619 39.3839 10.7117 39.2775 11.2748 38.8181C11.551 39.3683 11.719 39.9133 11.657 40.4504C12.4058 40.2974 12.6796 39.8536 12.7312 39.3397C13.2219 40.78 14.9778 42.3189 17.7875 42.3189C16.2974 40.1805 17.6841 38.0136 15.5796 35.577ZM12.806 38.2109L12.207 39.2359C11.9926 38.5613 11.6026 37.8606 11.3522 37.3624C10.8694 38.3614 10.1075 38.3822 9.37416 38.3874C9.53677 35.9948 6.54391 33.5892 7.86082 30.8592C8.12428 30.3142 7.95124 29.6448 7.38563 29.3566C5.37919 28.3342 6.3088 32.5798 4.30499 32.7094C4.68723 32.2242 4.83172 31.2173 4.88852 31.1291C4.46244 31.2407 3.44241 31.8946 2.98282 31.059C4.15524 30.418 4.4909 29.4526 4.67427 28.4847C4.90664 27.2598 5.01509 26.6915 5.2501 26.1881C5.49796 25.651 5.89306 25.1838 6.74014 24.0809C6.53875 24.1095 4.28434 24.5896 3.77564 24.3509C7.67755 21.9427 6.79948 18.8831 12.7467 16.1556C11.1869 14.9906 9.59357 14.0615 10.7351 11.8376C12.3645 13.8046 15.4608 13.1247 17.1341 12.2112C15.4815 11.8792 13.3509 10.4155 12.8474 8.78584C13.4697 8.68982 14.278 9.3697 14.7403 9.68626C14.9649 9.08429 15.0528 8.38619 15.7783 8.23564C14.81 10.3143 16.7209 11.399 18.5441 11.4068C18.8281 11.4068 20.0057 11.2874 20.0057 11.2874C19.8171 10.8981 19.0553 9.83425 19.608 9.40602C20.0547 9.82642 20.5867 10.1612 21.0696 10.5349C24.6152 13.2908 19.3859 15.8443 17.2476 17.0043C13.8932 18.826 14.7919 20.9955 16.1916 21.5482C16.1864 21.7922 16.0366 21.9012 15.8042 21.979C14.8229 22.3059 13.9035 21.6027 13.1211 21.1512C13.1676 22.511 13.0746 23.8189 14.5724 24.5662L13.542 24.9425C14.4277 25.6199 14.699 25.9779 15.7654 26.1181C15.267 26.3619 14.6499 26.3568 14.1205 26.4061C14.2548 26.7823 14.3632 27.2936 14.6422 27.631C12.4601 27.8905 11.5846 26.6397 10.908 26.689C9.4671 26.7979 9.55742 29.5228 13.1031 29.528L12.7364 30.1378C12.7364 30.1378 13.4077 30.5322 14.025 30.6075C13.7899 30.7996 13.5627 31.059 13.3639 31.2563L13.9294 31.7467C12.4807 32.0062 12.0727 30.4596 11.1326 31.2042C9.69948 32.3462 12.8577 34.7518 15.8842 34.3936C15.6312 34.7206 14.9184 35.2033 14.6137 35.4523C17.0799 37.7932 15.8635 39.9989 16.8785 41.6157C14.7506 41.4754 13.1754 39.9056 12.806 38.2109Z" fill="black"/>
<path fill-rule="evenodd" clip-rule="evenodd" d="M8.9148 29.663C9.42866 30.2002 10.0485 30.2573 11.2234 30.1819C9.92967 30.0237 9.20408 29.7071 8.75219 28.8455C8.68759 28.3992 8.64374 27.9217 8.62562 27.4131C8.58431 26.0456 9.03367 24.4158 9.97361 22.6304C9.96845 23.749 10.8489 25.5084 12.8193 25.8015C11.0479 25.023 10.0072 23.2713 10.5753 21.5768C10.9446 20.9852 11.3603 20.3728 11.8251 19.7525C12.0575 19.4542 12.2847 19.1635 12.5069 18.8961C12.2692 19.7603 13.31 20.653 14.0072 20.8036C13.6302 20.4324 12.8193 19.231 14.6916 17.2198C14.1699 17.4689 13.5914 17.8193 13.1525 18.1619C16.5509 14.4717 19.3475 14.3678 20.631 12.5098C18.7716 13.7865 13.8472 14.4768 11.6341 13.8723C12.8555 14.6922 15.7968 14.617 16.5172 14.4638C14.1209 16.8071 8.88382 19.2283 7.97486 21.3822C9.25056 19.9757 10.0769 19.7188 11.1821 19.3581C10.3119 20.6634 9.52951 21.8104 8.98963 23.1417C7.59516 26.1831 5.73078 26.2219 5.60938 28.7288C6.24474 26.7851 7.53583 26.292 8.42929 25.0152C8.27184 25.8301 8.19691 26.7331 8.22536 27.7764C8.25635 28.9105 8.48356 29.9069 8.8425 30.7996C8.75219 32.0401 8.86053 34.1576 10.2757 35.5563C9.31505 34.334 9.1085 32.3462 9.19375 31.5703C10.3016 33.7164 13.4598 36.6852 14.986 38.6781C13.4598 36.1168 9.71794 33.1221 8.9148 29.663Z" fill="black"/>
<path fill-rule="evenodd" clip-rule="evenodd" d="M43.8727 19.3594C44.9702 19.7227 45.7991 19.9796 47.0747 21.386C46.171 19.2321 40.9262 16.8111 38.5297 14.4677C39.2503 14.6182 42.1941 14.6961 43.4131 13.8761C41.2025 14.4807 36.278 13.7905 34.416 12.5137C35.7021 14.3717 38.4962 14.4755 41.8971 18.1657C41.4607 17.8232 40.8823 17.4727 40.3581 17.2237C42.2277 19.2349 41.4194 20.4389 41.0399 20.81C41.7371 20.6595 42.7777 19.7669 42.5402 18.9027C42.7649 19.1699 42.9921 19.4606 43.2245 19.759C43.6919 20.3818 44.1051 20.9917 44.4743 21.5833C45.0425 23.2805 43.9993 25.0321 42.2329 25.808C44.2032 25.5174 45.0864 23.7554 45.0761 22.6369C46.0186 24.4224 46.4679 26.0519 46.4266 27.4195C46.4086 27.9283 46.3647 28.4031 46.2975 28.8521C45.8431 29.7136 45.1174 30.0302 43.8261 30.1885C45.0038 30.2612 45.6209 30.2067 46.1373 29.6695C45.3343 33.1287 41.5925 36.1234 40.0636 38.6873C41.5925 36.6942 44.7455 33.7255 45.8586 31.5794C45.9437 32.3554 45.7371 34.3432 44.7765 35.5654C46.1916 34.1667 46.3002 32.0491 46.2096 30.8087C46.566 29.916 46.7907 28.9195 46.8269 27.7854C46.8605 26.7423 46.7804 25.8366 46.6255 25.0244C47.5215 26.3012 48.8101 26.7942 49.4479 28.7379C49.3266 26.2285 47.4621 26.1896 46.065 23.1482C45.5228 21.8092 44.7429 20.6621 43.8727 19.3594Z" fill="black"/>
<path fill-rule="evenodd" clip-rule="evenodd" d="M49.9368 25.0496C51.0343 25.2234 51.8969 25.2234 52.3074 24.1206C48.2738 22.1898 48.3074 18.139 43.672 16.0162C46.2208 14.1167 45.534 12.3339 44.3486 10.5355C43.0962 12.7621 40.9374 13.0656 39.6126 12.3417C41.4771 11.6592 42.1821 9.34436 43.3131 8.66966C42.6055 7.90677 41.7017 7.88083 40.6506 8.60222C40.0826 7.06596 38.2078 7.57201 37.9263 7.57201C38.417 8.06504 38.8818 8.71127 38.794 9.40407C38.6003 10.9455 36.1084 10.6964 36.1084 10.6964C36.6119 9.65583 36.3871 9.03565 35.2691 8.50101C34.9282 9.3288 32.253 10.4448 32.0773 12.0796C31.8088 14.6357 34.8223 16.1875 37.4667 17.6278C40.3769 19.2081 39.3105 20.9312 38.2543 20.9858C37.6681 22.8023 39.9096 23.1292 41.1852 22.3923C41.1801 22.6336 41.0174 24.092 39.0626 24.2114C39.2278 24.7874 39.5506 24.9743 40.0619 25.1638C39.6797 25.4518 38.5642 25.4934 37.9754 25.4934C38.0451 26.2822 38.8999 26.918 39.969 27.0244C39.8837 27.2632 39.4087 27.6472 38.9825 27.7666C40.1368 28.9214 43.2408 28.161 43.8709 27.4968C44.1601 27.1905 44.514 27.6239 44.1679 28.0858C43.8115 28.5581 42.2518 29.0874 40.9864 28.6955C40.8418 29.4066 41.0845 29.6766 41.2834 29.8685C41.2834 29.8685 40.0464 29.9931 39.7262 30.167C39.8476 30.7016 40.4467 31.0104 40.6558 31.2205C40.4441 31.4023 40.1936 31.8279 40.1033 32.1547C40.6713 32.4299 42.2156 32.858 43.0445 31.9083C43.3802 31.532 43.747 31.7707 43.4034 32.2508C42.1846 33.9375 39.2691 33.9635 38.2388 33.4367C38.2103 34.7576 38.7784 35.03 39.4628 35.575C37.3555 38.0118 38.7475 40.1786 37.2574 42.3118C40.0645 42.3118 41.8205 40.7728 42.3112 39.3326C42.368 39.8439 42.6365 40.2902 43.3828 40.4433C43.3261 39.9061 43.4912 39.3612 43.765 38.811C44.3331 39.2704 45.3686 39.3768 46.7243 39.4338C45.1879 36.8128 49.5365 34.1244 47.8116 30.5511C47.5559 30.0138 48.3048 29.6714 48.3771 30.2189C48.78 33.2836 50.5721 33.9739 52.0828 33.0189C51.6283 32.5207 51.4397 32.5311 51.1505 32.0769C52.168 32.3494 52.6845 31.6072 52.9452 30.6782C50.1977 29.7077 51.6825 27.3254 49.9368 25.0496ZM50.1693 31.1324C50.2235 31.2205 50.3655 32.2275 50.7503 32.7127C48.7438 32.5829 49.6734 28.3374 47.6669 29.3599C47.1014 29.6453 46.9336 30.3149 47.1943 30.8624C48.5062 33.5925 45.5159 35.998 45.6837 38.3906C44.9452 38.3854 44.1782 38.3647 43.7005 37.3655C43.4551 37.8638 43.0601 38.5645 42.8457 39.2393L42.2466 38.2141C41.8747 39.9113 40.2995 41.4787 38.1768 41.6214C39.1865 40.0074 37.9728 37.8015 40.4415 35.4583C40.1316 35.2091 39.4215 34.7265 39.1658 34.3995C42.1949 34.7576 45.3505 32.352 43.9174 31.2102C42.98 30.4653 42.5668 32.012 41.1232 31.7525L41.6889 31.262C41.4899 31.0648 41.2602 30.808 41.0251 30.6133C41.6424 30.5381 42.3137 30.1437 42.3137 30.1437L41.947 29.5337C45.4927 29.5285 45.5778 26.8038 44.1446 26.6948C43.4705 26.6456 42.5927 27.8989 40.4106 27.6368C40.6869 27.2995 40.8005 26.7883 40.9347 26.412C40.4079 26.3627 39.7856 26.3679 39.2899 26.1239C40.3563 25.9864 40.6248 25.6257 41.5106 24.951L40.4829 24.5721C41.978 23.8221 41.8825 22.5168 41.929 21.157C41.149 21.6085 40.2247 22.3092 39.251 21.9849C39.0186 21.907 38.8663 21.798 38.8612 21.5541C40.2633 20.9987 41.1568 18.8319 37.8049 17.0101C35.6694 15.8502 30.4375 13.2967 33.9804 10.5433C34.466 10.1696 34.9927 9.83231 35.4369 9.41444C35.9922 9.84268 35.233 10.9067 35.0444 11.2959C35.0444 11.2959 36.222 11.4152 36.5009 11.4152C38.3267 11.4074 40.2401 10.3227 39.2717 8.24153C39.9973 8.39208 40.0826 9.09524 40.3046 9.69479C40.7695 9.37813 41.5752 8.70089 42.2027 8.79681C41.694 10.4239 39.5686 11.8902 37.9134 12.2223C39.5841 13.1357 42.683 13.8156 44.3125 11.8486C45.4539 14.0725 43.8631 15.0015 42.3009 16.1667C48.2506 18.8915 47.37 21.9537 51.2745 24.3618C50.7709 24.6006 48.5088 24.1206 48.3074 24.092C49.1595 25.1949 49.5572 25.662 49.8 26.1992C50.0375 26.7026 50.1409 27.2684 50.3758 28.4958C50.5617 29.4638 50.9 30.429 52.0673 31.07C51.6102 31.8979 50.5928 31.2439 50.1693 31.1324Z" fill="black"/>
<path fill-rule="evenodd" clip-rule="evenodd" d="M21.8373 37.831L22.6869 37.1071L22.5578 36.8475C22.4647 36.6607 22.5138 36.6504 22.6121 36.5776L23.0614 36.243C23.1646 36.1572 23.273 36.1676 23.3996 36.1988L24.745 36.5154H23.3247C22.9967 36.5362 22.9012 36.6634 22.7825 36.9072L22.6844 37.1071L22.3202 37.8596C22.1963 38.1191 22.1317 38.4643 22.457 38.8536L22.7153 39.1623L22.1937 40.2237H22.6327L22.9942 39.4867C23.0226 39.4607 23.5572 38.9703 23.6708 38.4643C23.5158 38.3372 23.4073 38.2488 23.4927 38.0725L23.6553 37.7195C23.7095 37.6027 23.7276 37.556 23.8825 37.5845L25.2924 37.8907C25.4681 37.9401 25.7263 38.0179 25.9148 37.7325C26.1085 37.4366 26.1344 37.4678 26.5836 37.5119L27.3041 37.5897C28.288 37.6832 29.2719 37.4366 29.6541 37.1305C29.7884 37.4366 30.0543 37.6728 30.1783 37.9116C30.2248 37.9997 30.1474 38.1243 30.088 38.28L29.2797 40.2211H30.5268L31.2319 38.4513C31.2965 38.2826 31.392 38.1476 31.4643 38.0802L31.0589 40.2237H32.27L32.5902 38.1036C32.66 37.6313 32.6186 37.4808 32.394 37.2861C31.8903 36.8579 31.9007 35.96 31.738 35.4151C31.8232 35.3658 31.9239 35.3399 32.0428 35.3555C32.3062 35.3788 32.505 36.056 32.8149 36.492C33.4346 37.3665 34.279 38.332 35.2474 36.9721C35.1544 36.8164 35.0538 36.6763 34.935 36.5413L34.6639 36.2222C34.5063 36.0457 33.7574 35.1841 33.445 34.8753C32.7348 34.1565 31.6451 34.2655 31.2112 34.6158C30.2273 34.0969 29.1893 34.6418 28.9439 34.621L27.2499 34.5172C27.1724 34.512 27.0563 34.4861 26.9737 34.3537L27.2887 34.2499C26.9943 33.0173 26.2531 31.987 24.9594 31.8079C24.9594 31.8079 24.8844 31.4187 24.6856 31.3434L24.2982 31.8002C24.1898 31.8158 24.071 31.8494 23.9729 31.891L22.3202 31.2734L23.5598 32.532C23.5598 32.532 22.9167 33.4481 22.7334 33.6349C22.6121 33.8062 22.6224 33.9385 22.7592 34.1021L22.9994 34.4186C23.1234 34.5821 23.2602 34.5769 23.4589 34.4757L23.7302 34.3329C23.849 34.2344 24.2466 34.4289 24.417 34.2732C24.3086 34.6314 24.2544 34.9766 24.2286 35.249L23.1156 35.114C22.8728 35.0803 22.7618 35.114 22.6146 35.2308L21.6643 35.9652C21.3544 36.204 21.2589 36.6166 21.45 37.0188L21.8373 37.831ZM31.0304 38.0412L30.2764 39.9097H29.8064L30.5606 38.1009C30.638 37.8673 30.4907 37.7584 30.3023 37.5042C30.5812 37.6624 30.7826 37.7661 31.1209 37.896C31.0925 37.9479 31.0563 37.9765 31.0304 38.0412ZM23.7586 33.9956L23.5443 34.1098C23.3944 34.1954 23.3195 34.2344 23.1904 34.0735L23.0976 33.954C23.0511 33.897 23.0356 33.7595 23.1311 33.6505L24.0555 32.5683L23.2034 31.865L24.2879 32.2673L24.6856 31.769C24.8018 31.8676 24.7605 32.1557 24.7605 32.1557C25.1995 32.1557 26.4778 32.7942 26.5268 34.3926C26.5268 34.3926 26.8161 34.8208 27.1853 34.8441L29.0679 34.9584C29.3804 34.9584 30.1603 34.3615 31.1622 34.9247C31.4152 34.7715 31.6864 34.6496 31.9654 34.6184C32.8484 34.5536 33.4993 35.1711 33.9821 35.794C34.3358 36.2455 34.8214 36.9357 34.8214 36.9357C34.6122 37.185 34.4082 37.2679 34.2352 37.2057C33.9744 37.0708 33.8892 36.8606 33.8065 36.5673C33.6748 36.1027 33.1661 35.7057 33.1661 35.7057C33.3391 36.0171 33.3752 36.3701 33.4579 36.6945C32.7219 35.9626 32.5825 35.0699 32.0686 34.9454C31.8413 34.8884 31.5754 34.9869 31.33 35.2723C31.5883 35.8771 31.5754 36.5776 31.8413 37.0474C32.0428 37.3977 32.0867 37.4288 32.1771 37.5067C32.394 37.6624 32.2726 37.9453 32.239 38.1503L31.9601 39.907H31.4901L31.8 38.1892C31.8955 37.665 30.4314 37.665 29.6825 36.6659C29.0446 37.4158 27.2551 37.229 26.4803 37.1123C26.1679 37.0656 25.8632 37.0863 25.6927 37.3951C25.5921 37.569 25.4243 37.5171 25.3209 37.4912L23.9083 37.185C23.6604 37.1278 23.552 37.1771 23.4435 37.4054L23.1621 37.992C23.1001 38.1295 23.1027 38.2307 23.2162 38.3424L23.3505 38.485C23.2705 38.7653 23.0149 38.9807 23.0149 38.9807L22.7075 38.6329C22.5578 38.4565 22.5501 38.2021 22.6689 37.9531L23.1259 36.9929C23.1801 36.8865 23.2782 36.7723 23.4693 36.7723L25.215 36.7464L24.6805 35.8719C24.2827 35.2152 24.9439 34.0449 24.8431 33.4921C24.7889 34.2317 23.898 33.8944 23.7586 33.9956ZM21.8631 36.2015L22.6895 35.5682C22.8366 35.4567 22.9348 35.3839 23.1027 35.4047L24.2699 35.5604C24.3344 35.8407 24.5204 36.1157 24.5204 36.1157L23.2782 35.8537C23.1027 35.8329 23.0511 35.8407 22.8857 35.96L22.297 36.4064C22.1808 36.4972 22.1757 36.6426 22.2428 36.7853L22.3383 36.9902L21.9277 37.3017L21.7701 37.0058C21.6101 36.6918 21.5998 36.4038 21.8631 36.2015Z" fill="black"/>
<path fill-rule="evenodd" clip-rule="evenodd" d="M25.4625 13.6726C25.9144 13.9865 26.7149 14.3213 26.7149 14.3213V13.7867L24.9512 13.1094C24.9512 13.1094 24.9512 13.3274 25.4625 13.6726Z" fill="black"/>
<path fill-rule="evenodd" clip-rule="evenodd" d="M26.7122 13.0288V12.4943L24.7109 11.7754C24.7109 11.7754 24.9485 12.0297 25.4598 12.3801C25.9117 12.6915 26.7122 13.0288 26.7122 13.0288Z" fill="black"/>
<path fill-rule="evenodd" clip-rule="evenodd" d="M26.7139 11.8156V11.2784L24.5215 10.4688C24.5215 10.4688 24.9502 10.8165 25.4615 11.1669C25.9134 11.4808 26.7139 11.8156 26.7139 11.8156Z" fill="black"/>
<path fill-rule="evenodd" clip-rule="evenodd" d="M32.8711 19.1156H35.1126C35.0197 18.7886 34.671 18.459 34.0177 18.459C33.398 18.459 33.0261 18.8172 32.8711 19.1156Z" fill="black"/>
<path fill-rule="evenodd" clip-rule="evenodd" d="M30.527 10.4688L28.3398 11.2784V11.8156C28.3398 11.8156 29.1403 11.4808 29.5922 11.1669C30.1009 10.8165 30.527 10.4688 30.527 10.4688Z" fill="black"/>
<path fill-rule="evenodd" clip-rule="evenodd" d="M30.1009 13.1094L28.3398 13.7893V14.3238C28.3398 14.3238 29.1403 13.9864 29.5922 13.6751C30.1009 13.3274 30.1009 13.1094 30.1009 13.1094Z" fill="black"/>
<path fill-rule="evenodd" clip-rule="evenodd" d="M30.3393 11.7754L28.3379 12.4943V13.0288C28.3379 13.0288 29.1409 12.694 29.5903 12.3827C30.1016 12.0297 30.3393 11.7754 30.3393 11.7754Z" fill="black"/>
<path fill-rule="evenodd" clip-rule="evenodd" d="M21.0284 18.459C20.3752 18.459 20.0265 18.7886 19.9336 19.1156H22.1777C22.0175 18.8172 21.6509 18.459 21.0284 18.459Z" fill="black"/>
<path fill-rule="evenodd" clip-rule="evenodd" d="M31.9794 9.02547C31.9794 7.75906 29.8618 6.625 27.5248 6.625C25.1878 6.625 23.0703 7.75906 23.0703 9.02547L23.1193 9.33683L24.049 14.7163L19.6331 17.3035C19.1632 17.5813 18.5744 18.3443 18.4995 19.1124H19.3052C19.4395 18.3443 20.0411 17.4931 21.1697 17.5449C22.1897 17.5995 22.7939 18.2221 23.393 19.1124L23.5481 19.3459L23.7701 19.6962H17.2754C17.7532 20.6589 18.2051 21.6814 18.2051 22.7895V36.359C18.2051 39.8493 20.8727 41.5127 23.7623 41.5127C25.9935 41.5127 26.2957 41.4114 27.5274 42.6493C28.754 41.4114 29.0561 41.5127 31.2924 41.5127C34.1795 41.5127 36.8497 39.8493 36.8497 36.359V22.7921C36.8497 21.6839 37.3016 20.6616 37.7793 19.6988H31.2796L31.5043 19.3485L31.6592 19.115C32.2557 18.2248 32.8626 17.602 33.8826 17.5475C35.0059 17.4956 35.6127 18.3468 35.7445 19.115H36.5475C36.4753 18.3468 35.8839 17.5813 35.4165 17.3062L31.0007 14.7189L31.933 9.33947L31.9794 9.02547ZM23.9741 9.643L27.2692 10.7693V15.9516L24.8417 14.6696L23.9741 9.643ZM24.785 20.6382C25.2187 21.2351 25.9212 21.6762 26.7527 21.8475C26.8225 22.1615 26.9929 22.5065 27.3234 22.7843C27.1865 23.7107 27.5816 24.5748 28.5733 24.8032C28.6765 25.2756 28.9684 25.6311 29.4564 25.7997L28.767 26.5991C28.5035 26.9053 28.1602 27.0038 27.876 26.9675L24.7978 26.6172C24.9322 26.2746 24.5758 25.8775 23.6022 26.0463L24.8133 22.6468L24.0748 21.0715L22.6751 22.2705L22.5719 25.836L21.9779 25.5427C21.1955 25.2055 20.9682 26.625 21.7119 26.6302L22.0063 26.6327C21.9882 26.778 22.0322 26.939 22.1458 26.9882C22.0063 27.0479 21.965 27.3126 22.1406 27.4061C21.9624 27.4891 21.9391 27.759 22.0813 27.8757C21.9263 28.1378 21.903 28.7062 22.4427 28.8488C22.8843 28.9656 23.1607 28.4881 23.251 28.2105L28.0386 29.7C28.7179 29.8948 29.1982 29.7857 29.7612 29.29L31.011 28.1924C30.8535 28.9112 31.1117 29.5574 31.6566 29.7727C31.6566 29.7727 31.5792 30.4189 31.6024 30.7069H19.1373V22.7921C19.1373 22.055 18.9256 21.3181 18.6725 20.6382H24.785ZM29.9341 23.6406C29.6708 24.1467 29.6966 24.7281 30.0064 25.2547L29.7999 25.4571C28.9012 25.3456 28.5474 23.9988 28.5474 23.9988C28.5293 24.1207 28.519 24.2375 28.5216 24.3569C27.9973 24.1622 27.6668 23.6952 27.6928 23.0542C27.8915 23.1657 28.1136 23.2436 28.3512 23.2851L28.4132 22.8906C27.7857 22.7817 27.419 22.3873 27.2795 21.9202C27.2486 21.9175 27.2227 21.9098 27.1942 21.9072C27.3054 21.915 27.4163 21.9254 27.5299 21.9254C27.9019 21.9254 28.2556 21.8683 28.5861 21.7697C28.847 22.1434 29.3093 22.4106 29.774 22.4625C29.6992 22.7739 29.7354 23.1605 29.9341 23.6406ZM31.2641 27.201C31.1737 27.323 31.1014 27.4632 31.0549 27.6162L30.554 28.0781C30.6546 27.3412 30.1614 26.4719 29.7121 26.1163L30.2441 25.5922L30.3499 25.7012C30.1718 26.1708 30.5204 27.0921 31.2641 27.201ZM28.8444 26.9701L29.2576 26.5626C29.6759 26.9312 30.2286 27.7538 30.0556 28.5375L29.6063 28.9527C29.5132 29.0436 29.4177 29.1085 29.3196 29.1681C29.6011 28.47 29.2422 27.3957 28.8444 26.9701ZM27.956 27.3153H27.969C28.1187 27.3386 28.2789 27.3126 28.4235 27.253C28.7385 27.7045 28.9839 28.7321 28.6068 29.3731C28.3925 29.3783 28.1833 29.3393 27.987 29.2823L27.8322 29.2356C28.1498 28.7399 28.1058 27.8628 27.956 27.3153ZM26.9154 27.1854L27.4964 27.2581C27.5894 27.7434 27.5274 28.5817 27.2201 29.0592L26.5435 28.8619C26.8405 28.457 26.9799 27.624 26.9154 27.1854ZM25.7042 27.0376L26.4093 27.1205C26.4789 27.5098 26.3473 28.3376 26.0813 28.7321L25.3634 28.5244C25.65 28.143 25.7533 27.471 25.7042 27.0376ZM22.8507 26.8481C22.5229 26.9546 22.3782 26.7158 22.3911 26.5134C23.0342 26.2772 23.3207 26.4302 23.5093 26.5497C23.6823 26.6586 23.8269 26.9701 24.0593 27.1647C24.0206 27.4294 23.9406 27.8135 23.8449 28.0704C23.1865 27.9018 23.153 27.3178 23.3982 26.9623C23.2613 26.8014 23.1168 26.7598 22.8507 26.8481ZM22.3911 28.1378C22.3911 28.1378 22.5874 28.2209 22.8352 28.2391C22.8069 28.3766 22.701 28.5063 22.5332 28.47C22.3937 28.4388 22.3317 28.2677 22.3911 28.1378ZM21.7429 26.2434C21.5803 26.1345 21.6526 25.8957 21.8333 25.8957C22.0322 25.9009 22.2955 26.1267 22.5564 26.2382C22.5564 26.2382 21.872 26.3317 21.7429 26.2434ZM22.4118 27.6188C22.5538 27.7564 22.9799 27.7045 22.9799 27.7045L22.9954 27.7902C22.8094 28.0393 22.293 27.9277 22.4118 27.6188ZM22.9851 27.336C22.6803 27.458 22.3678 27.2918 22.4633 27.0946C22.6055 27.2244 23.0006 27.1595 23.0006 27.1595L22.9851 27.336ZM23.4344 23.773L22.8507 25.9086L23.0497 22.4625L23.9535 21.6866L24.4132 22.7013L23.251 26.0489L23.5584 23.7963C23.5867 23.6355 23.4603 23.6174 23.4344 23.773ZM23.4758 26.3628C23.4758 26.3628 24.1264 26.3317 24.3098 26.4018C24.4441 26.4589 24.3536 26.6872 24.1781 26.6613C23.9948 26.6379 23.4758 26.3628 23.4758 26.3628ZM24.4958 26.8819L25.2032 26.9701C25.2575 27.3594 25.1568 28.0185 24.9037 28.387L24.2194 28.1872C24.4002 27.7538 24.4441 27.3464 24.4958 26.8819ZM35.9175 36.3616C35.9175 38.012 35.1582 39.2654 33.8956 39.9608L34.3475 39.0371H33.9084L33.3273 40.2204C32.7257 40.4487 32.0439 40.5758 31.2899 40.5758C28.9864 40.5758 28.377 40.6694 27.5248 41.5231C26.67 40.6694 26.0607 40.5758 23.7598 40.5758C23.0109 40.5758 22.3292 40.4539 21.73 40.2256H21.7455L22.3265 39.0371H21.8901L21.3814 40.0776C21.26 40.0205 21.1413 39.9582 21.0275 39.8908L21.4459 39.0371H21.0121L20.7023 39.6727C19.7158 38.9436 19.1347 37.8018 19.1347 36.3616V31.1714H35.9123V36.3616H35.9175ZM36.3849 20.6382C36.1241 21.3181 35.9149 22.055 35.9149 22.7921V30.7069H34.9981C34.5824 30.3022 34.2311 28.9527 34.2311 28.9527C34.004 29.4381 34.2647 30.4216 34.5075 30.7069H33.3273C33.0356 30.31 32.7825 28.9034 32.7825 28.9034C32.4288 29.3082 32.6534 30.4007 32.8728 30.7069H32.0879C32.0388 30.1438 32.1989 29.5314 32.1989 29.5314C31.7883 29.4562 31.3519 29.2381 31.3544 28.7814C31.5611 28.976 31.6463 28.9734 31.933 28.9682L32.266 28.7036C31.1608 28.7399 31.1092 27.5202 31.9871 26.9494C31.1117 26.9779 30.4583 26.4537 30.776 25.5195C30.1537 25.1952 29.9341 24.1363 30.3938 23.6718C30.0608 23.3085 30.0064 22.5949 30.2182 22.1095C29.7767 22.1095 29.2808 21.9331 29.0045 21.6294C28.9839 21.6399 28.958 21.6476 28.9347 21.6555C29.4874 21.4297 29.9548 21.0767 30.2699 20.6407H36.3849V20.6382ZM33.0433 16.8287C32.1344 16.9871 31.3519 18.1054 30.7114 19.115L30.6391 19.2318H29.9548L29.9522 19.3511C29.8825 20.1296 29.1466 21.1857 27.5248 21.1857C26.776 21.1857 26.2104 20.9548 25.8231 20.6407C25.4874 20.3657 25.2755 20.0258 25.1723 19.7014C25.1336 19.5846 25.1103 19.4653 25.1 19.3511L25.0948 19.2318H24.4157L24.3433 19.115C23.7003 18.108 22.9178 16.9896 22.0114 16.8287L24.488 15.3833L27.5299 17.0441L30.5668 15.3833L33.0433 16.8287ZM30.2079 14.6696L27.7831 15.9516V10.7693L31.0782 9.643L30.2079 14.6696ZM27.5274 10.2036L23.9251 8.77371C24.2297 8.04713 25.6423 7.42684 27.5274 7.42684C29.4099 7.42684 30.8199 8.04713 31.1247 8.77371L27.5274 10.2036Z" fill="black"/>
<path fill-rule="evenodd" clip-rule="evenodd" d="M35.5322 25.7533L35.5399 25.3562C34.3288 25.3277 34.05 23.8926 34.05 23.8926C33.6961 24.9488 34.6206 25.7377 35.5322 25.7533Z" fill="black"/>
<path fill-rule="evenodd" clip-rule="evenodd" d="M34.0027 28.1845L33.8814 27.8082C32.8485 28.0729 32.3139 26.4277 32.3139 26.4277C31.9834 27.624 33.135 28.47 34.0027 28.1845Z" fill="black"/>
<path fill-rule="evenodd" clip-rule="evenodd" d="M34.7217 26.6596C33.4873 26.8569 32.9813 25.4141 32.9813 25.4141C32.8444 26.2004 33.3505 26.997 34.1692 27.08C33.9832 28.1051 34.9309 28.6319 35.7521 28.266L35.6333 27.9078C34.9206 28.1492 34.2518 27.4407 34.7217 26.6596Z" fill="black"/>
<path fill-rule="evenodd" clip-rule="evenodd" d="M33.9824 22.5403L33.9927 22.1433C32.3632 21.8059 32.5001 20.6797 32.5001 20.6797C32.149 21.741 33.0733 22.5247 33.9824 22.5403Z" fill="black"/>
<path fill-rule="evenodd" clip-rule="evenodd" d="M23.6577 39.0371L23.0742 40.2255H23.5132L24.0942 39.0371H23.6577Z" fill="black"/>
<path fill-rule="evenodd" clip-rule="evenodd" d="M24.5381 39.0371L23.957 40.2255H24.3986L24.9744 39.0371H24.5381Z" fill="black"/>
<path fill-rule="evenodd" clip-rule="evenodd" d="M28.0654 39.0371L27.4844 40.2255H27.9208L28.5043 39.0371H28.0654Z" fill="black"/>
<path fill-rule="evenodd" clip-rule="evenodd" d="M28.9494 39.0371L28.3633 40.2255H28.8048L29.3832 39.0371H28.9494Z" fill="black"/>
<path fill-rule="evenodd" clip-rule="evenodd" d="M27.1851 39.0371L26.6016 40.2255H27.0405L27.6215 39.0371H27.1851Z" fill="black"/>
<path fill-rule="evenodd" clip-rule="evenodd" d="M32.3379 40.2255H32.7768L33.3579 39.0371H32.9189L32.3379 40.2255Z" fill="black"/>
<path fill-rule="evenodd" clip-rule="evenodd" d="M25.4208 39.0371L24.8398 40.2255H25.2788L25.8598 39.0371H25.4208Z" fill="black"/>
<path fill-rule="evenodd" clip-rule="evenodd" d="M26.2997 39.0371L25.7188 40.2255H26.1603L26.7413 39.0371H26.2997Z" fill="black"/>
<path fill-rule="evenodd" clip-rule="evenodd" d="M24.306 32.6484C24.226 32.6484 24.1562 32.7263 24.1562 32.8275C24.1562 32.9262 24.226 33.0066 24.306 33.0066C24.3887 33.0066 24.461 32.9262 24.461 32.8275C24.4585 32.7263 24.3887 32.6484 24.306 32.6484Z" fill="black"/>
<path fill-rule="evenodd" clip-rule="evenodd" d="M27.5259 5.82272C29.3336 5.82272 30.7822 6.4248 31.5801 7.07091C31.5801 7.07091 31.8204 5.62813 32.6287 4.36173L31.1722 4.52519L30.4103 2.89556L28.9462 3.6611L27.5259 2.24414L26.1056 3.6611L24.6362 2.89556L23.8744 4.52519L22.418 4.36173C23.2289 5.62813 23.4663 7.07091 23.4663 7.07091C24.267 6.4248 25.7182 5.82272 27.5259 5.82272ZM24.1249 5.17395L24.8196 3.69476L26.1056 4.38248L27.5259 2.97336L28.9462 4.38248L30.2322 3.69476L30.9191 5.17395L31.7739 5.04162C31.5543 5.45419 31.389 5.81488 31.2368 6.32094C30.302 5.77338 28.9126 5.35044 27.5259 5.35044C26.134 5.35044 24.7473 5.77338 23.8124 6.32094C23.6575 5.81488 23.4948 5.45419 23.2728 5.04162L24.1249 5.17395Z" fill="black"/>
<path fill-rule="evenodd" clip-rule="evenodd" d="M29.0125 2.90876C29.2242 2.92697 29.4128 2.76605 29.4308 2.5559C29.4515 2.3431 29.1416 1.77734 29.1416 1.77734C29.1416 1.77734 28.6794 2.27821 28.6639 2.49101C28.6432 2.69861 28.8033 2.88802 29.0125 2.90876Z" fill="black"/>
<path fill-rule="evenodd" clip-rule="evenodd" d="M31.3992 3.77847C31.5877 3.87968 31.8176 3.8044 31.9183 3.61491C32.0215 3.42815 31.9543 2.78711 31.9543 2.78711C31.9543 2.78711 31.3398 3.06481 31.2392 3.2542C31.141 3.44107 31.2134 3.67461 31.3992 3.77847Z" fill="black"/>
<path fill-rule="evenodd" clip-rule="evenodd" d="M26.037 2.90876C26.2514 2.88802 26.4088 2.70115 26.3908 2.49101C26.3702 2.27821 25.9131 1.77734 25.9131 1.77734C25.9131 1.77734 25.6057 2.34565 25.6238 2.5559C25.6393 2.76605 25.8278 2.92697 26.037 2.90876Z" fill="black"/>
<path fill-rule="evenodd" clip-rule="evenodd" d="M23.6533 3.77847C23.8418 3.67461 23.9115 3.44107 23.8134 3.2542C23.7152 3.06481 23.098 2.78711 23.098 2.78711C23.098 2.78711 23.0335 3.42815 23.1369 3.61491C23.2324 3.8044 23.4647 3.87968 23.6533 3.77847Z" fill="black"/>
<path fill-rule="evenodd" clip-rule="evenodd" d="M52.2781 16.9619C52.7869 16.7802 53.1792 16.2923 53.3755 15.8408C52.0818 15.654 48.6447 14.2033 45.8196 15.3841C46.8784 14.3747 47.8287 14.2449 47.919 12.7916C48.358 13.1083 49.0992 13.2872 49.5176 12.5322C49.2258 11.6681 48.4897 12.3686 48.3865 12.1299C48.2419 11.7977 49.3135 12.2311 49.5434 11.1074C48.7093 10.8195 48.4613 11.5045 48.3115 11.3462C48.1748 11.1957 48.8409 10.9077 48.3503 10.002C47.4826 10.5132 47.9345 11.0867 47.7512 11.1515C47.5291 11.2398 47.7047 10.5366 46.7441 10.5703C46.6485 11.6057 47.6454 11.6394 47.4826 11.8029C47.2838 12.0027 47.0255 11.2086 46.2999 11.6109C46.3128 12.4464 46.9867 12.9058 47.6816 12.7086C47.5678 14.2968 46.1166 14.0009 45.0371 15.7915C47.3251 16.9697 48.3607 19.025 49.768 20.447C50.2328 20.1148 51.0282 18.6409 51.0282 18.6409C52.5517 19.8267 53.6234 18.6461 53.6234 18.6461C53.0992 18.1063 53.0786 17.6963 52.2781 16.9619ZM50.0573 17.25C50.2147 17.6002 50.5273 18.8225 49.7809 19.7541C48.9313 18.0491 47.7641 16.5882 46.819 15.9576C46.6123 15.8226 46.9326 15.5866 47.5162 15.5086C49.2748 15.1739 51.338 15.9212 52.3195 16.1833C51.8623 16.5259 51.4905 16.6816 51.023 16.7387C51.7357 17.3408 52.2574 17.8494 52.624 18.4151C51.9346 18.589 51.5447 18.1504 50.0573 17.25Z" fill="black"/>
<path fill-rule="evenodd" clip-rule="evenodd" d="M35.3667 43.7554V41.8145C33.8741 42.5021 31.976 43.06 29.5332 43.2806L29.4222 43.9734C29.6287 44.002 29.892 44.0279 30.2433 44.0513C29.3395 44.1758 28.1697 44.2356 27.5292 44.2356C26.8862 44.2356 25.7191 44.1758 24.8126 44.0513C25.1612 44.0279 25.4246 44.002 25.6312 43.9734L25.5202 43.2806C23.0773 43.06 21.1766 42.5021 19.6867 41.8145V43.7554L17.6621 44.591C19.1625 45.3748 20.8874 46.0132 22.881 46.5295L22.6434 47.3419C23.7849 47.6792 25.6105 48.0217 27.524 48.0217C29.4377 48.0217 31.2607 47.6767 32.4047 47.3419L32.1697 46.5295C34.1608 46.0132 35.8909 45.3748 37.3912 44.591L35.3667 43.7554ZM18.7441 44.6352L20.1102 44.0825V42.5021C20.9882 42.842 22.1398 43.195 23.7926 43.5401L23.0179 46.0755C21.3315 45.6862 19.8984 45.162 18.7441 44.6352ZM27.5266 47.5572C25.985 47.5572 24.4795 47.3263 23.1935 47.0071L24.0121 44.3472C24.5543 44.4743 25.9127 44.6404 27.5266 44.6404C29.1433 44.6404 30.4938 44.4717 31.0386 44.3472L31.8599 47.0071C30.5687 47.3263 29.0658 47.5572 27.5266 47.5572ZM32.038 46.0755L31.2633 43.5401C32.9161 43.1975 34.0677 42.842 34.9458 42.5021V44.0825L36.3093 44.6352C35.155 45.162 33.7269 45.6862 32.038 46.0755Z" fill="black"/>
<path fill-rule="evenodd" clip-rule="evenodd" d="M4.02304 18.6409C4.02304 18.6409 4.81838 20.1148 5.28071 20.447C6.69066 19.0275 7.72872 16.9723 10.0141 15.7915C8.93201 14.0009 7.48075 14.3019 7.3723 12.7086C8.0669 12.9058 8.73842 12.4439 8.75391 11.6109C8.02559 11.2086 7.7675 12.0079 7.57117 11.8029C7.40845 11.6342 8.40266 11.6057 8.30971 10.5703C7.34912 10.5391 7.52469 11.2398 7.30001 11.1515C7.11917 11.0867 7.57117 10.5107 6.70099 10.002C6.21295 10.9102 6.88173 11.1957 6.7423 11.3462C6.59498 11.5045 6.34195 10.8221 5.51045 11.1074C5.73503 12.2311 6.81197 11.7977 6.66727 12.1299C6.564 12.3686 5.83072 11.6681 5.54144 12.5322C5.95465 13.2899 6.69836 13.1108 7.13466 12.7942C7.22771 14.2501 8.17545 14.372 9.23679 15.3841C6.40908 14.2033 2.97202 15.654 1.67302 15.8433C1.87193 16.2923 2.26447 16.7802 2.77318 16.9567C1.9726 17.6989 1.95193 18.1088 1.42773 18.6461C1.42773 18.6461 2.4968 19.8267 4.02304 18.6409ZM2.42195 18.4176C2.79121 17.852 3.31021 17.3408 4.0282 16.7412C3.55818 16.6816 3.18891 16.5259 2.72923 16.1833C3.7131 15.9212 5.77908 15.1713 7.54018 15.5086C8.11864 15.5866 8.44397 15.8226 8.23225 15.9576C7.28715 16.5882 6.11727 18.0491 5.26765 19.7541C4.52404 18.8225 4.83904 17.6028 4.99143 17.2524C3.50654 18.1504 3.11925 18.589 2.42195 18.4176Z" fill="black"/>
<path fill-rule="evenodd" clip-rule="evenodd" d="M26.2891 17.5586V18.4123C26.5808 18.0568 27.149 18.127 27.149 18.127V19.3595C27.149 19.3595 27.1284 19.9668 26.9165 20.2264H27.5285H28.1406C27.9262 19.9668 27.9081 19.3595 27.9081 19.3595V18.1295C27.9081 18.1295 28.4736 18.0593 28.7655 18.415V17.5611H27.5285H26.2891V17.5586Z" fill="black"/>
</g>
<defs>
<clipPath id="clip0_122_11131">
<rect width="55.082" height="48" fill="white"/>
</clipPath>
</defs>
</svg>
