<svg width="101" height="71" viewBox="0 0 101 71" fill="none" xmlns="http://www.w3.org/2000/svg">
<path d="M98.7276 11.0917C98.1832 8.91646 97.0743 6.92345 95.5131 5.31395C93.9519 3.70444 91.9936 2.53543 89.836 1.925C81.9526 4.09782e-07 50.4193 0 50.4193 0C50.4193 0 18.886 1.36594e-07 11.0026 2.10833C8.845 2.71876 6.88668 3.88777 5.32546 5.49728C3.76424 7.10679 2.6554 9.0998 2.11095 11.275C0.668187 19.2755 -0.0375486 27.3914 0.00262004 35.5208C-0.0488082 43.7115 0.656972 51.8893 2.11095 59.95C2.71118 62.0576 3.84486 63.9748 5.40245 65.5164C6.96003 67.0579 8.88888 68.1716 11.0026 68.75C18.886 70.8583 50.4193 70.8583 50.4193 70.8583C50.4193 70.8583 81.9526 70.8583 89.836 68.75C91.9936 68.1396 93.9519 66.9706 95.5131 65.3611C97.0743 63.7515 98.1832 61.7585 98.7276 59.5833C100.159 51.6431 100.865 43.589 100.836 35.5208C100.887 27.3302 100.182 19.1524 98.7276 11.0917Z" fill="#FF0000"/>
<path d="M40.1055 50.5102L66.4596 35.5227L40.1055 20.5352V50.5102Z" fill="white"/>
</svg>
